{"title":"Jurassic World {2015} NEW HQCAM X264 AC3-MRG","uid":12012321,"size":1550818173,"categoryP":"video","categoryS":"movies","magnet":"?xt=urn:btih:6bf81038997ff3d37742405b6760ba559128de15&amp;dn=Jurassic+World+%7B2015%7D+NEW+HQCAM+X264+AC3-MRG&amp;tr=udp%3A%2F%2Ftracker.openbittorrent.com%3A80&amp;tr=udp%3A%2F%2Fopen.demonii.com%3A1337&amp;tr=udp%3A%2F%2Ftracker.coppersurfer.tk%3A6969&amp;tr=udp%3A%2F%2Fexodus.desync.com%3A6969","seeders":16,"leechers":7,"uploader":"makintos13","files":18,"time":1434231820,"description":"Screens:\n &lt;a href=&quot;\nhttp://imgmak.com/Hd&quot; rel=&quot;nofollow&quot; target=&quot;_NEW&quot;&gt;\nhttp://imgmak.com/Hd&lt;/a&gt;\n &lt;a href=&quot;\nhttp://imgmak.com/Hs&quot; rel=&quot;nofollow&quot; target=&quot;_NEW&quot;&gt;\nhttp://imgmak.com/Hs&lt;/a&gt;\n &lt;a href=&quot;\nhttp://imgmak.com/H4&quot; rel=&quot;nofollow&quot; target=&quot;_NEW&quot;&gt;\nhttp://imgmak.com/H4&lt;/a&gt;\n &lt;a href=&quot;\nhttp://imgmak.com/H8&quot; rel=&quot;nofollow&quot; target=&quot;_NEW&quot;&gt;\nhttp://imgmak.com/H8&lt;/a&gt;\n &lt;a href=&quot;\nhttp://imgmak.com/HL&quot; rel=&quot;nofollow&quot; target=&quot;_NEW&quot;&gt;\nhttp://imgmak.com/HL&lt;/a&gt;\n\nJurassic World {2015} NEW HQCAM X264 AC3-MRG\n\nAnother new video source here with sum nice english audio:)\nEnjoy.....................................................\n\nSpecial thanks to : mrsourav.....\nAudio : Comptuts\nFormat : Matroska\nFormat version : Version 2\nFile size : 1.44 GiB\nDuration : 1h 55mn\nOverall bit rate : 1 786 Kbps\n\nVideo\nID : 1\nFormat : AVC\nFormat/Info : Advanced Video Codec\nFormat profile : &lt;a class=&quot;__cf_email__&quot; href=&quot;/cdn-cgi/l/email-protection&quot; data-cfemail=&quot;561b373f38161a657867&quot;&gt;[email&amp;#160;protected]&lt;/a&gt;&lt;script data-cfhash='f9e31' type=&quot;text/javascript&quot;&gt;\n/* &lt;![CDATA[ */!function(){try{var t=&quot;currentScript&quot;in document?document.currentScript:function(){for(var t=document.getElementsByTagName(&quot;script&quot;),e=t.length;e--;)if(t[e].getAttribute(&quot;data-cfhash&quot;))return t[e]}();if(t&amp;&amp;t.previousSibling){var e,r,n,i,c=t.previousSibling,a=c.getAttribute(&quot;data-cfemail&quot;);if(a){for(e=&quot;&quot;,r=parseInt(a.substr(0,2),16),n=2;a.length-n;n+=2)i=parseInt(a.substr(n,2),16)^r,e+=String.fromCharCode(i);e=document.createTextNode(e),c.parentNode.replaceChild(e,c)}t.parentNode.removeChild(t);}}catch(u){}}()/* ]]&gt; */&lt;/script&gt;\nFormat settings, CABAC : Yes\nFormat settings, ReFrames : 1 frame\nCodec ID : V_MPEG4/ISO/AVC\nDuration : 1h 55mn\nBit rate : 1 656 Kbps\nWidth : 720 pixels\nHeight : 332 pixels\nDisplay aspect ratio : 2.2:1\nFrame rate mode : Constant\nFrame rate : 50.000 fps\nColor space : YUV\nChroma subsampling : 4:2:0\nBit depth : 8 bits\nScan type : Progressive\nBits/(Pixel*Frame) : 0.139\nStream size : 1.31 GiB (91%)\nWriting library : x264 core\n\nAudio\nID : 2\nFormat : AC-3\nFormat/Info : Audio Coding 3\nMode extension : CM (complete main)\nFormat settings, Endianness : Big\nCodec ID : A_AC3\nDuration : 1h 55mn\nBit rate mode : Constant\nBit rate : 128 Kbps\nChannel(s) : 2 channels\nChannel positions : Front: L R\nSampling rate : 48.0 KHz\nCompression mode : Lossy\nStream size : 106 MiB (7%)\nDefault : Yes\nForced : No","torrent":{"xt":"urn:btih:6bf81038997ff3d37742405b6760ba559128de15","amp;dn":"Jurassic+World+%7B2015%7D+NEW+HQCAM+X264+AC3-MRG","amp;tr":["udp%3A%2F%2Ftracker.openbittorrent.com%3A80","udp%3A%2F%2Fopen.demonii.com%3A1337","udp%3A%2F%2Ftracker.coppersurfer.tk%3A6969","udp%3A%2F%2Fexodus.desync.com%3A6969"],"infoHash":"6bf81038997ff3d37742405b6760ba559128de15","infoHashBuffer":{"type":"Buffer","data":[107,248,16,56,153,127,243,211,119,66,64,91,103,96,186,85,145,40,222,21]},"announce":[],"urlList":[]}}